<svg width="159" height="172" viewBox="0 0 159 200" fill="none" xmlns="http://www.w3.org/2000/svg">
  <path d="M133.363 128.595C133.379 151.934 133.428 170.968 133.428 171.308L119.08 171.344C119.08 171.003 119.028 151.953 119.015 128.595H133.363Z" fill="#FFB948"/>
  <path d="M27.7769 128.595H42.1248C42.1248 151.953 42.0622 170.998 42.0622 171.341L27.7142 171.303C27.7142 170.96 27.7633 151.929 27.7769 128.595Z" fill="#FFB948"/>
  <path d="M158.294 171.308L143.946 171.344C143.946 170.883 143.854 135.823 143.881 102.363H158.224C158.202 135.796 158.292 170.845 158.294 171.308Z" fill="#FFB948"/>
  <path d="M52.6189 148.695H66.9668C66.9478 161.984 66.9233 171.099 66.9233 171.325L52.5753 171.287C52.5753 171.069 52.5998 161.97 52.6189 148.695Z" fill="#FFB948"/>
  <path d="M142.111 13.9619C133.232 5.03263 120.891 0.501178 105.438 0.501178C101.268 0.480055 97.1063 0.845145 93.0044 1.59178C88.9025 0.845021 84.7403 0.47993 80.5712 0.501178C76.008 0.475632 71.4545 0.922423 66.9831 1.83443C62.5019 0.920692 57.9382 0.473894 53.3651 0.501178C37.9114 0.501178 25.5844 5.03263 16.6864 13.9619C0.344766 30.4028 0.445533 56.9371 0.508176 71.1967V71.5348C0.529964 76.6634 0.546304 82.2227 0.557198 88.0056H14.9079C14.8942 82.2009 14.8806 76.6225 14.8561 71.4748V71.134C14.8016 58.9629 14.709 36.3084 26.8563 24.0991C30.8191 20.1157 35.806 17.4437 41.9532 16.0423C27.5426 32.5649 27.6489 57.526 27.7088 71.1967V71.5348C27.7633 84.1912 27.7769 99.4706 27.7769 114.229H42.1275C42.1275 99.4542 42.1112 84.1476 42.0567 71.4748V71.134C42.0077 58.9629 41.926 36.3084 54.0623 24.0936C57.3497 20.7836 61.3452 18.3816 66.1252 16.8602C52.4173 33.3774 52.5072 57.7578 52.5753 71.1913V71.5348C52.6542 90.1268 52.657 114.39 52.6325 134.337H66.9831C67.0049 114.374 67.0022 90.086 66.9232 71.4748V71.134C66.8742 58.9629 66.7761 36.3084 78.9234 24.0991C79.0814 23.9382 79.242 23.7801 79.4027 23.6274C79.5634 23.7828 79.7214 23.9382 79.8821 24.0991C92.0321 36.3111 91.934 58.9683 91.8823 71.1422V71.4803C91.8033 90.0914 91.8033 114.374 91.8196 134.337H106.168C106.154 114.39 106.154 90.1296 106.23 71.543V71.2049C106.285 57.6487 106.388 32.9929 92.3398 16.4649C92.2282 16.3258 92.1029 16.1922 91.983 16.0423C92.3235 16.1213 92.664 16.2004 92.999 16.2904C98.6777 17.7463 103.349 20.3365 107.075 24.0991C119.219 36.3111 119.126 58.9683 119.075 71.1422V71.4803C119.02 84.1503 119.004 99.4542 119.004 114.229H133.355C133.355 99.4706 133.355 84.194 133.423 71.543V71.1995C133.477 57.7551 133.581 33.3828 119.875 16.8657C124.653 18.3925 128.643 20.7891 131.933 24.0991C144.083 36.3111 143.985 58.9683 143.936 71.1422V71.4803C143.911 76.6279 143.895 82.2063 143.884 88.0056H158.232C158.232 82.2254 158.259 76.6688 158.284 71.543V71.2049C158.357 56.9453 158.469 30.4028 142.111 13.9619ZM66.1225 16.8629C66.2287 16.7266 66.3349 16.5903 66.452 16.4649C66.6209 16.5085 66.7952 16.5576 66.964 16.6094C66.6835 16.6912 66.4084 16.7757 66.1306 16.8629H66.1225Z" fill="#FFB948"/>
  <path d="M106.187 148.695C106.206 161.965 106.227 171.069 106.227 171.303L91.8795 171.339C91.8795 171.107 91.855 161.987 91.8359 148.709L106.187 148.695Z" fill="#FFB948"/>
  <path d="M14.9269 102.369C14.9514 135.818 14.8616 170.875 14.8616 171.349L0.513672 171.311C0.513672 170.848 0.603548 135.804 0.579035 102.377L14.9269 102.369Z" fill="#FFB948"/>
	<style>
    @media (prefers-color-scheme:light){:root{filter:invert(100%)}}
  </style>
</svg>
